<svg width="87" height="40" fill="none" xmlns="http://www.w3.org/2000/svg"><path fill-rule="evenodd" clip-rule="evenodd" d="M4.21 0h31.748c2.338 0 4.21 1.866 4.15 4.198v31.604A4.187 4.187 0 0135.9 40H4.21A4.186 4.186 0 010 35.802V4.198A4.186 4.186 0 014.21 0zm20.58 26.589l2.222 6.356h5.028l-2.338-6.648v-.058s-.059-.175-.176-.583c-.096-.337-.313-.436-.583-.558a5.226 5.226 0 01-.177-.083c-.35-.175-.35-.467-.175-.584.409-.291.877-.524 1.345-.758.793-.374.274-.6-.344-.87-.246-.107-.509-.22-.709-.354a2.28 2.28 0 01-.819-.991c-.058-.059-.058-.059-.058-.117L22.744 6.414h-5.028l-5.204 14.81-.058.117s-.293.933.058 1.166l.045.03c.36.237.962.633-.103 1.137-.519.244-.897.413-1.171.535-.313.14-.49.219-.583.28-.176.117-.351.409-.059.467.293.059.293.408.175.758l-.233.583-2.34 6.59h5.03l2.338-6.648.234-.525c.117-.35.175-.7-.176-.758-.35-.058-.234-.35-.058-.466.144-.096.448-.232 1.205-.57l.001-.001.548-.245c1-.45.632-.727.248-1.017a4.066 4.066 0 01-.19-.15c-.409-.35-.058-1.166-.058-1.166l2.748-7.755 2.923 8.28h-4.268c-.058.291.059.525.234.7l.045.03c.36.236.962.633-.104 1.136-.518.245-.896.413-1.17.536-.313.14-.49.218-.584.28-.175.117-.233.408.059.467.292.058.35.408.175.758-.175.35-.292.816-.292.816h7.66zM52.68 9.446h-3.567v2.624h-.585V6.414h.585v2.507h3.566V6.414h.585v5.714h-.585V9.446zm4.852-3.149c1.579-.058 2.865 1.167 2.924 2.74v.176a2.891 2.891 0 01-2.924 2.915 2.891 2.891 0 01-2.923-2.915c-.059-1.575 1.228-2.857 2.806-2.916h.117zm0 5.307c1.228.058 2.28-.933 2.339-2.216v-.175a2.342 2.342 0 00-2.339-2.333 2.342 2.342 0 00-2.338 2.333c0 1.34 1.052 2.39 2.338 2.39zm4.327-5.19h.585l2.338 2.974 2.222-2.974h.526v5.714h-.584V7.347l-2.222 2.915h-.059l-2.221-2.915v4.781h-.585V6.414zm10.933 0h-3.39v5.714h3.449v-.583h-2.865v-2.04h2.572V8.92h-2.572V6.997h2.806v-.583zm9.414 2.624c-.059-1.574-1.345-2.799-2.924-2.74h-.117c-1.578.058-2.865 1.34-2.806 2.915a2.891 2.891 0 002.923 2.915 2.891 2.891 0 002.924-2.915v-.175zm-.585.35c-.058 1.283-1.11 2.274-2.339 2.216-1.286 0-2.338-1.05-2.338-2.391a2.342 2.342 0 012.338-2.333 2.342 2.342 0 012.339 2.333v.175zM87 6.414h-3.391v5.714h.585V9.68h2.572v-.583h-2.572v-2.1H87v-.583zm-.994 10.904c-.468 0-.877.408-.877.933 0 .524.41.933.935.874.468 0 .878-.408.878-.933 0-.466-.41-.874-.936-.874zm.76.991c0 .408-.35.7-.76.7-.41 0-.702-.35-.702-.758 0-.408.351-.7.76-.7.41 0 .702.35.702.758zm-.935.466h-.176v-1.05h.41c.233 0 .35.06.35.292 0 .175-.117.292-.234.292l.293.466h-.176l-.292-.466h-.175v.466zm.409-.758c0 .175-.117.175-.234.175l-.234-.058v-.291h.234c.117 0 .234 0 .234.174zm.76 7.056c0 4.373-3.508 7.872-7.893 7.93-3.04 0-5.788-1.75-7.133-4.432-.176 2.45-2.163 4.374-4.62 4.374h-6.723V17.493h7.192c2.221 0 4.15 2.274 4.15 4.198 1.346-2.74 4.094-4.49 7.134-4.49 4.385 0 7.893 3.557 7.893 7.872zm-31.397 7.872h4.21v-15.51h-4.21v5.772h-2.748v-5.773h-4.327v15.51h4.327V26.94h2.748v6.006zm11.226-6.24c.701.117 1.227.817 1.11 1.517a1.366 1.366 0 01-1.11 1.107h-2.164v-2.623h2.164zm1.11-4.314c.117-.7-.409-1.4-1.11-1.516l-2.164.058v2.566h2.164a1.366 1.366 0 001.11-1.108zm1.696 2.682a3.468 3.468 0 001.579-.991 6.68 6.68 0 000 2.157c-.351-.525-.877-.991-1.579-1.166zm9.472-3.965a3.974 3.974 0 00-3.976 3.965 3.974 3.974 0 003.976 3.965c2.222 0 3.976-1.75 3.976-3.965 0-2.216-1.754-3.965-3.976-3.965zm0 7.055c1.695 0 3.099-1.4 3.099-3.09 0-1.691-1.404-3.09-3.1-3.09-1.695 0-3.098 1.399-3.098 3.09 0 1.69 1.403 3.09 3.099 3.09z" fill="#fff"/></svg>