<svg width="40" height="54" fill="none" xmlns="http://www.w3.org/2000/svg"><path fill-rule="evenodd" clip-rule="evenodd" d="M0 4a4 4 0 014-4h14a4 4 0 014 4v32h14a4 4 0 014 4v10a4 4 0 01-4 4H4a4 4 0 01-4-4V4zm4 38v6a2 2 0 002 2h10a2 2 0 002-2v-8H6a2 2 0 00-2 2zm14-6H4V6a2 2 0 012-2h10a2 2 0 012 2v30zm4 4v10h12a2 2 0 002-2v-6a2 2 0 00-2-2H22zM10.872 8.5a5.652 5.652 0 015.645 5.646 5.652 5.652 0 01-5.645 5.645 5.652 5.652 0 01-5.645-5.645A5.652 5.652 0 0110.872 8.5zm-1.954 5.646c0 1.077.876 1.954 1.954 1.954a1.956 1.956 0 001.954-1.954 1.956 1.956 0 00-1.954-1.955 1.956 1.956 0 00-1.954 1.955zm5.536 7.274a2.19 2.19 0 00-1.535.636 2.187 2.187 0 00-.636 1.535c0 .571.232 1.131.636 1.535.404.404.964.636 1.535.636s1.131-.232 1.535-.636c.406-.404.636-.964.636-1.535a2.18 2.18 0 00-.636-1.535 2.186 2.186 0 00-1.535-.636zm-8.7.636a2.187 2.187 0 011.535-.636c.57 0 1.13.232 1.535.636.406.404.636.964.636 1.535s-.23 1.131-.636 1.535a2.186 2.186 0 01-1.535.636 2.187 2.187 0 01-1.536-.636 2.186 2.186 0 01-.636-1.535c0-.571.233-1.131.636-1.535z" fill="#fff"/></svg>