<svg width="12" height="18" fill="none" xmlns="http://www.w3.org/2000/svg"><path d="M9.484.13h-7.68C.818.13 0 1.023 0 2.126v13.775C0 17.005.8 17.9 1.804 17.9h7.68c.985 0 1.803-.895 1.803-1.998V2.127c0-1.103-.8-1.998-1.803-1.998zm1.246 15.772c0 .77-.558 1.374-1.246 1.374h-7.68c-.688 0-1.246-.625-1.246-1.374V2.127c0-.77.558-1.373 1.246-1.373h7.68c.688 0 1.246.624 1.246 1.373v13.775z" fill="#1D1D1D"/><path d="M7.922 2.106H3.329c-.15 0-.28.146-.28.313 0 .166.13.312.28.312h4.593c.149 0 .279-.146.279-.312 0-.167-.13-.313-.28-.313zM5.634 14.03c-.52 0-.93.478-.93 1.04 0 .27.094.541.28.729a.88.88 0 00.65.291c.521 0 .93-.479.93-1.04 0-.563-.409-1.02-.93-1.02zm.02 1.457a.35.35 0 01-.261-.125.437.437 0 01-.112-.292c0-.229.168-.416.372-.416.205 0 .372.187.372.416 0 .23-.167.416-.372.416z" fill="#1D1D1D"/></svg>