<svg width="31" height="31" fill="none" xmlns="http://www.w3.org/2000/svg"><g clip-path="url(#clip0_215_15)" fill="#104F92"><path d="M17.922 9.204A2.425 2.425 0 0015.5 6.78a2.425 2.425 0 00-2.422 2.423 2.425 2.425 0 002.422 2.421 2.425 2.425 0 002.422-2.421zm-3.875 0c0-.802.652-1.454 1.453-1.454s1.453.652 1.453 1.454c0 .8-.652 1.452-1.453 1.452a1.454 1.454 0 01-1.453-1.452z"/><path d="M15.488 23.532l.376-.46c.263-.32 6.439-7.92 6.417-12.89-.017-4.012-3.059-7.276-6.781-7.276-3.74 0-6.781 3.264-6.781 7.277 0 4.97 6.134 12.567 6.395 12.888l.374.46zM15.5 3.875c3.19 0 5.798 2.83 5.813 6.31.017 3.952-4.476 10.057-5.822 11.797-1.339-1.741-5.803-7.846-5.803-11.799 0-3.478 2.607-6.308 5.812-6.308z"/><path d="M20.828 17.438v.968h4.073l4.796 8.719H1.303L6.1 18.406h4.073v-.968H5.526l-5.86 10.656h31.669l-5.861-10.657h-4.646z"/></g><defs><clipPath id="clip0_215_15"><path fill="#fff" d="M0 0h31v31H0z"/></clipPath></defs></svg>