<svg width="23" height="16" fill="none" xmlns="http://www.w3.org/2000/svg"><path d="M21.963 7.843A11.87 11.87 0 0011.047.571 11.87 11.87 0 00.082 7.769a.55.55 0 00-.002.43 11.87 11.87 0 0010.916 7.274 11.87 11.87 0 0010.966-7.2.55.55 0 00.001-.43zM11 14.373a10.772 10.772 0 01-9.812-6.385 10.773 10.773 0 019.855-6.317 10.772 10.772 0 019.813 6.384A10.772 10.772 0 0111 14.373z" fill="#1D1D1D"/><path d="M11.037 3.81A4.217 4.217 0 006.81 8.006a4.217 4.217 0 004.198 4.227 4.217 4.217 0 004.227-4.198 4.217 4.217 0 00-4.198-4.227zm-.025 7.324A3.116 3.116 0 017.91 8.011a3.116 3.116 0 013.123-3.102 3.116 3.116 0 013.102 3.123 3.116 3.116 0 01-3.123 3.102z" fill="#1D1D1D"/><path d="M11.03 5.785a2.24 2.24 0 00-2.245 2.23.55.55 0 101.1.003 1.138 1.138 0 011.14-1.133.55.55 0 00.005-1.1z" fill="#1D1D1D"/></svg>