<svg width="104" height="56" xmlns="http://www.w3.org/2000/svg"><g fill="none" fill-rule="evenodd"><path d="M0 0h104v56H0z"/><path d="M18 36.368l8.92 5.336L18 47V36.368zm58.219 0l8.92 5.336L76.22 47V36.368zm-24.454.04l5.165 9.218H46.6l5.165-9.217zm-1.487-.889l-5.125 9.217-5.165-9.217h10.29zm13.264 0l-5.125 9.217-5.165-9.217h10.29zm-35.76-5.983v10.632l-8.921-5.336 8.92-5.296zm58.218 0v10.632l-8.92-5.336L86 29.536zm-27.623-5.013l5.165 9.217h-10.29l5.125-9.217zm-13.224 0l5.165 9.217h-10.29l5.125-9.217zM18 22.663L26.92 28 18 33.336V22.664zm58.219 0L85.139 28l-8.92 5.336V22.664zm-32.553.971l-5.125 9.217-5.165-9.217h10.29zm26.527 0l-5.164 9.217-5.165-9.217h10.33zM18 9l8.92 5.296v.04L18 19.632V9zm58.219 0l8.92 5.296v.04l-8.92 5.296V9z" fill="#EC174F"/></g></svg>