<svg width="72" height="40" fill="none" xmlns="http://www.w3.org/2000/svg"><path fill-rule="evenodd" clip-rule="evenodd" d="M9.445 5.617L0 11.191V0l9.445 5.574v.043zM0 25.574v.043L9.445 20 0 14.383v11.192zm21.75-.468l-5.47-9.702h10.896l-5.427 9.702zM10.356 32.81V21.617L.91 27.192l9.446 5.617zM0 40l9.445-5.575L0 28.81V40zm23.282-12.085l5.468 9.702 5.427-9.702H23.282zM41.22 38.553H30.283l5.468-9.702 5.469 9.702zm20.423-12.978v.042L71.09 20l-9.446-5.617v11.192zM71.09 5.617l-9.446 5.574V0l9.446 5.574v.043zm-21.294 19.49l5.468-9.703H44.328l5.468 9.702zm-12.47.936l5.428-9.703 5.468 9.703H37.326zm5.469 11.574l5.427-9.702H37.326l5.468 9.702zM72 32.809l-9.445-5.617L72 21.617v11.192zM61.643 40l9.446-5.575-9.446-5.616V40zM28.75 16.34l5.469 9.703H23.323l5.427-9.703z" fill="#fff"/></svg>