<svg width="165" height="28" fill="none" xmlns="http://www.w3.org/2000/svg"><path fill-rule="evenodd" clip-rule="evenodd" d="M100.386 7.188c-.701 0-1.25-.505-1.25-1.133s.549-1.149 1.25-1.149c.684 0 1.233.52 1.233 1.149 0 .628-.549 1.133-1.233 1.133zm-50.607.83c4.002 0 6.003 2.742 6.003 5.889 0 3.146-2.001 5.889-6.003 5.889-4.003 0-6.002-2.743-6.002-5.89 0-3.146 2-5.889 6.002-5.889zM14.4 17.171c-1.937 0-2.962-1.339-2.962-3.146s1.025-3.146 2.962-3.146c1.1 0 1.904.432 2.396 1.137l1.96-2.258c-1-.994-2.447-1.622-4.356-1.622-4.003 0-6.004 2.743-6.004 5.89 0 3.146 2.001 5.889 6.004 5.889 1.68 0 3.005-.489 3.979-1.284l-1.69-2.458c-.498.62-1.265.998-2.29.998zm32.416-3.265c0-1.807 1.025-3.147 2.961-3.147 1.937 0 2.962 1.34 2.962 3.147 0 1.807-1.025 3.146-2.962 3.146-1.936 0-2.961-1.34-2.961-3.146zm45.672-.073c0-4.088 3.114-5.737 5.535-5.737 4.457 0 5.893 3.546 5.175 6.753h-7.573c.358 1.58 2.017 2.236 3.787 2.236 1.231 0 2.329-.248 3.248-.655v2.462c-1.009.429-2.331.677-3.945.677-3.404 0-6.227-1.965-6.227-5.736zm7.91-1.017c.111-.745-.314-2.326-2.264-2.326-1.323 0-2.486.836-2.532 2.326h4.796zM80.565 19.55h-2.961V8.256h4.434c2.768 0 4.882.904 4.882 3.873 0 2.969-2.114 3.856-4.882 3.872h-1.473v3.55zm0-8.713h1.616c.896 0 1.697.275 1.697 1.29 0 1.017-.801 1.292-1.697 1.292h-1.616v-2.582zm49.372 8.713h2.962v-4.356h1.392l2.721 4.356h3.282l-3.681-5.792 3.52-5.503h-3.28l-2.546 4.276H132.9V8.256h-2.962v11.295zm26.691 0h-3.04l-.64-1.775h-4.644l-.639 1.775h-3.042l4.401-11.295h3.202l4.402 11.295zm-5.713-7.454l1.151 3.259h-2.88l1.152-3.26a5.68 5.68 0 00.288-1.145c.097.597.192.871.289 1.146zm-41.553 7.454h14.646V8.256h-2.96v8.633h-2.883V8.256h-2.961v8.633h-2.88V8.256h-2.962v11.295zm-81.17.08H25.23V8.336h2.803l3.409 5.293 3.409-5.293h2.802v11.295h-2.961v-6.002l-2.4 3.71h-1.697l-2.403-3.727v6.019zm39.545-8.712h3.373V8.256H60.73l1.424 2.663h2.622v8.632h2.961V10.92zm26.9-4.864c0 .628.568 1.133 1.251 1.133.684 0 1.235-.505 1.235-1.133s-.551-1.149-1.234-1.149c-.684 0-1.252.52-1.252 1.149z" fill="#fff"/></svg>