<svg width="62" height="40" fill="none" xmlns="http://www.w3.org/2000/svg"><path fill-rule="evenodd" clip-rule="evenodd" d="M30.103 10.831L9.741 2.194v5.273l20.362 8.688V10.83zM2.993 4.587L7.982 2.26v4.456l-4.99-2.129zM1.792 5.912l6.19 2.642v23.095l-6.19 5.489V5.912zM58.836 38.24H3.195l5.995-5.317h43.65l5.996 5.317zm-6.547-7.079H9.741V9.304l20.948 8.939a.834.834 0 00.685 0l20.915-8.925V31.16zM.532 3.816l-.01-.024L8.502.073a.912.912 0 01.717 0l21.818 9.22L52.778.106a.912.912 0 01.717 0l7.982 3.719c.02.02.04.028.068.038.017.007.037.014.062.027a.82.82 0 01.391.718v34.511c.033.49-.358.881-.847.881H.88a.876.876 0 01-.88-.88V4.607c0-.294.163-.555.391-.718a.951.951 0 01.141-.074zm59.74 2.096v31.255l-6.223-5.518V8.567l6.222-2.655zM59 4.575l-4.952 2.11V2.26L59 4.575zm-27.106 6.263l20.394-8.644v5.24l-20.394 8.688v-5.284z" fill="#fff"/></svg>