<svg width="64" height="64" fill="none" xmlns="http://www.w3.org/2000/svg"><path fill-rule="evenodd" clip-rule="evenodd" d="M32 64c17.673 0 32-14.327 32-32C64 14.327 49.673 0 32 0 14.327 0 0 14.327 0 32c0 17.673 14.327 32 32 32z" fill="#000" fill-opacity=".4"/><path fill-rule="evenodd" clip-rule="evenodd" d="M32 56c13.255 0 24-10.745 24-24S45.255 8 32 8 8 18.745 8 32s10.745 24 24 24z" fill="#FFC125"/><path fill-rule="evenodd" clip-rule="evenodd" d="M25.53 19.623a1 1 0 00-1.53.848V43.53a1 1 0 001.53.848l18.447-11.529a1 1 0 000-1.696L25.53 19.623z" fill="#fff"/></svg>