<svg xmlns="http://www.w3.org/2000/svg" viewBox="0 0 24 24"><path d="M13.917 5.5a2.732 2.732 0 012.727 2.737v7.526a2.732 2.732 0 01-2.727 2.737H3.727A2.732 2.732 0 011 15.763V8.237A2.732 2.732 0 013.728 5.5zm8.487 2.015c.337-.168.596-.004.596.36v8.25c0 .361-.267.522-.596.355l-4.578-2.326a.406.406 0 01-.204-.327v-3.695c0-.12.092-.269.204-.325z" fill="#008ed6" fill-rule="evenodd" xmlns="http://www.w3.org/2000/svg"/><path d="M8.46 4a.24.24 0 01.24.24v1.015a.24.24 0 01-.24.24h-.574a.24.24 0 00-.217.14l-.93 2.001h10.417l-.617-1.972a.24.24 0 00-.229-.169h-.55a.24.24 0 01-.24-.24V4.24a.24.24 0 01.24-.24h.763a3.27 3.27 0 011.834.563l3.61 2.447A2.352 2.352 0 0123 8.958v8.837A2.205 2.205 0 0120.795 20h-5.35c-.657 0-1.28-.293-1.7-.8l-1.179-1.424a.735.735 0 00-1.132 0L10.255 19.2c-.419.507-1.042.8-1.7.8h-5.35A2.205 2.205 0 011 17.795V8.96c0-.782.389-1.513 1.037-1.95l3.569-2.408A3.529 3.529 0 017.579 4h.881zm.737 7.044h-4.76a1.47 1.47 0 00-1.47 1.47v2.242c0 .812.658 1.47 1.47 1.47h4.76a1.47 1.47 0 001.47-1.47v-2.242a1.47 1.47 0 00-1.47-1.47zm10.31 0h-4.759a1.47 1.47 0 00-1.47 1.47v2.242c0 .812.658 1.47 1.47 1.47h4.76a1.47 1.47 0 001.47-1.47v-2.242a1.47 1.47 0 00-1.47-1.47z" fill="#008ed6" fill-rule="evenodd" xmlns="http://www.w3.org/2000/svg"/><path fill-rule="evenodd" clip-rule="evenodd" d="M16.724 18.889a.56.56 0 01.481.273.56.56 0 010 .565.546.546 0 01-.48.273h-9.45a.56.56 0 01-.48-.273.56.56 0 010-.565.546.546 0 01.48-.273h9.45zM22.34 4a.66.66 0 01.66.66v12.68a.66.66 0 01-.66.66H1.66a.66.66 0 01-.66-.66V4.66A.66.66 0 011.66 4h20.68zM8.298 8.444H6.94V14h1.358v-2.237h2.128V14h1.354V8.444h-1.354v2.18H8.298v-2.18zm6.59 0H12.66V14h2.227c.824 0 1.466-.247 1.925-.741.459-.494.688-1.184.688-2.07 0-.88-.229-1.557-.686-2.032-.458-.475-1.1-.713-1.927-.713zm-.274 1.112c.428 0 .76.131.994.394.235.264.352.641.352 1.134 0 .524-.114.919-.343 1.184-.228.266-.563.399-1.003.399h-.634V9.556z" fill="#008ed6" xmlns="http://www.w3.org/2000/svg"/><path d="M15.784 10.426c-1.349.21-2.493-.952-2.287-2.32.13-.852.816-1.548 1.656-1.679 1.348-.21 2.492.952 2.286 2.32-.129.852-.815 1.548-1.655 1.679M21.679 1a.192.192 0 01.194.162c.178 1.004.852 6.545-4.387 12.997a11.423 11.423 0 01-1.79 1.755.188.188 0 00-.07.187c.187.946.417 2.847-.442 3.942-1.773 2.26-4.356 2.827-5.181 2.955a.209.209 0 01-.237-.233s.352-3.46.425-4.202a.108.108 0 00-.122-.12c-.406.057-1.024.132-1.195.091-.26-.062-2.2-1.696-2.303-1.947-.068-.165-.087-.785-.092-1.184a.098.098 0 00-.123-.094l-4.129 1.104A.18.18 0 012 16.24c-.007-.803.125-3.529 2.084-5.685.96-1.057 2.92-1.092 3.844-1.044a.184.184 0 00.172-.098c.434-.781.97-1.547 1.634-2.244C15.232 1.403 20.68 1.021 21.68 1zM4.576 17.824c.58-.702 1.443-.973 1.564-.667.2.503-.396.417-.637 1.59-.186.908.12 1.319.115 1.334.012-.006.456.24 1.312-.086 1.106-.422.947-.993 1.467-.87.317.076.185.982-.409 1.67a2.884 2.884 0 01-1.432.886c-1.239.322-2.383.13-2.383.13s-.362-1.125-.239-2.415a2.962 2.962 0 01.642-1.572z" fill="#008ed6" fill-rule="evenodd" xmlns="http://www.w3.org/2000/svg"/><path d="M20.026 12.516L23 17.758 20.026 23H14.08l-2.974-5.242 2.974-5.242h5.947zm-1.334 7.734h-3.279a.516.516 0 000 1.031h3.279a.516.516 0 100-1.031zm.262-5.734a.516.516 0 10-.887.531l1.686 2.798a.518.518 0 00.712.177.515.515 0 00.175-.708zM9.576 6.672a.48.48 0 01.417.243l2.702 4.762a.48.48 0 010 .474l-2.702 4.762a.48.48 0 01-.417.243H4.188a.48.48 0 01-.418-.243l-2.7-4.762a.48.48 0 010-.474l2.7-4.762a.48.48 0 01.418-.243h5.388zm-5.417 5.092a.518.518 0 00-.705-.2.515.515 0 00-.2.7l1.587 2.855a.518.518 0 00.705.201.515.515 0 00.2-.701zM19.747 1a.48.48 0 01.417.243l2.702 4.762a.48.48 0 010 .474l-2.702 4.762a.48.48 0 01-.417.243h-5.389a.48.48 0 01-.417-.243L11.24 6.48a.48.48 0 010-.474l2.701-4.762A.48.48 0 0114.358 1h5.389zM8.52 8.219H5.242a.516.516 0 000 1.031h3.279a.516.516 0 000-1.031z" fill="#008ed6" fill-rule="evenodd" xmlns="http://www.w3.org/2000/svg"/><path d="M19.594 6.413v7.27s.07 1.682-1.758 1.796c-.747.046-1.295.192-1.681.36-1.08.417-1.835 1.368-1.835 2.467 0 1.48 1.336 2.49 3.06 2.49S21 20.162 21 17.99v-16c0-.668-.555-1.1-1.239-.964L9.028 3.171c-.456.09-.755.507-.755.954v11.761s.07 1.683-1.757 1.797c-.747.046-1.295.192-1.681.36C3.755 18.46 3 19.41 3 20.51 3 21.99 4.336 23 6.06 23s3.62-.634 3.62-2.806V8.544l9.914-2.13z" fill="#008ed6" fill-rule="evenodd" xmlns="http://www.w3.org/2000/svg"/><path d="M22.04 2c.53 0 .96.43.96.96v10.757H7.208a.404.404 0 000 .808H23v1.616H7.208a.404.404 0 000 .808H23v1.617H7.208a.404.404 0 100 .808H23v.706c0 1.06-.86 1.92-1.92 1.92H2.92A1.92 1.92 0 011 20.08V5.384c0-.53.43-.96.96-.96h1.075v14.992a.49.49 0 10.981 0V2.96c0-.53.43-.96.96-.96H22.04zm-9.42 2.876H7.295a.48.48 0 00-.48.48v5.504c0 .266.215.48.48.48h5.325a.48.48 0 00.48-.48V5.356a.48.48 0 00-.48-.48z" fill="#008ed6" fill-rule="evenodd" xmlns="http://www.w3.org/2000/svg"/><path d="M4.942 4.009a.91.91 0 01.916.903.897.897 0 01-.34.703 8.941 8.941 0 000 12.777c.208.168.34.42.34.705a.91.91 0 01-.916.903.92.92 0 01-.714-.336A10.682 10.682 0 011 12.004 10.73 10.73 0 014.222 4.34a.96.96 0 01.72-.33zM19.058 4a.92.92 0 01.719.342A10.711 10.711 0 0123 12.005a10.73 10.73 0 01-3.222 7.665.944.944 0 01-.674.285.91.91 0 01-.916-.904c0-.27.12-.514.312-.68a8.941 8.941 0 00-.018-12.755.93.93 0 01-.34-.713.91.91 0 01.916-.903zM7.508 6.584a.91.91 0 01.917.903.896.896 0 01-.316.682A5.378 5.378 0 006.5 12.005c0 1.496.616 2.852 1.61 3.833a.908.908 0 01.315.684.91.91 0 01-.917.903.92.92 0 01-.692-.311 7.153 7.153 0 01-.001-10.22.925.925 0 01.693-.31zm8.984 0a.92.92 0 01.693.313 7.153 7.153 0 010 10.219.929.929 0 01-.693.31.91.91 0 01-.917-.904c0-.273.122-.517.316-.682a5.378 5.378 0 001.609-3.835 5.365 5.365 0 00-1.61-3.832.908.908 0 01-.315-.686.91.91 0 01.917-.903zM12 8.39c2.025 0 3.667 1.618 3.667 3.614 0 1.995-1.642 3.613-3.667 3.613S8.333 14 8.333 12.005c0-1.996 1.642-3.614 3.667-3.614z" fill="#008ed6" fill-rule="evenodd" xmlns="http://www.w3.org/2000/svg"/></svg>