<svg width="104" height="56" xmlns="http://www.w3.org/2000/svg"><g fill="none" fill-rule="evenodd"><path d="M0 0h104v56H0z"/><path d="M43.318 11.141v3.688h-4.743V39.59h-4.08V14.829h-4.743V11.14h13.566zm5.453 0h4.671l5.494 28.45h-3.962l-.028-.165-.494-3.014h-4.24l-1.055-3.399h4.74l-2.764-16.92-3.84 23.498h-3.975l5.453-28.45zm27.406 0h13.566v3.688H85V39.59h-4.08V14.829h-4.743V11.14zM73.67 26.244c-.09 2.787-.713 4.127-1.964 4.748l2.866 8.599h-4.178l-2.43-7.44-.209-.643-1.215-3.721h1.804c1.05 0 1.317-.635 1.386-1.755-.015.006.023-.873.023-1.37v-6.734c0-1.926 0-3.065-1.41-3.065h-2.562v12.924l-.042 3.721v8.083h-3.973V11.14h6.536c3.76 0 5.384.657 5.384 6v8.53c0 .205-.008.387-.013.575l-.002-.002zM15.09 39.53v-4.007H19v4.007h-3.91zm4.576-18.922l6.504 10.59a8.193 8.193 0 011.207 4.286v4.108H23.29v-4.108c0-.726-.2-1.44-.578-2.055l-6.505-10.59A8.196 8.196 0 0115 18.552v-2.627C15 12.98 16.649 11 19.104 11h3.974c2.493 0 4.104 1.933 4.104 4.925v3.452h-4.087v-2.796l.001-.412c.002-.716-.418-1.472-1.261-1.472h-1.488c-.86 0-1.26.752-1.26 1.466v2.389c0 .728.2 1.439.577 2.055h.001z" fill="#1C1F24" fill-rule="nonzero"/><path fill="#E00A1E" d="M15 45h74.743v-3.09H15z"/></g></svg>