<svg width="88" height="40" fill="none" xmlns="http://www.w3.org/2000/svg"><path fill-rule="evenodd" clip-rule="evenodd" d="M5.493 11.303L13.15 23.76a9.634 9.634 0 011.42 5.043v4.832H9.76v-4.832c0-.855-.236-1.694-.682-2.418L1.421 13.927A9.637 9.637 0 010 8.885v-3.09C0 2.329 1.941 0 4.832 0H9.51c2.936 0 4.832 2.275 4.832 5.795v4.06H9.53V6.566c0-.112 0-.286.002-.485.003-.842-.492-1.732-1.485-1.732H6.295c-1.013 0-1.484.886-1.484 1.725v2.81c0 .857.236 1.693.68 2.419h.002zm63.584 6.631c-.107 3.279-.84 4.855-2.314 5.586l3.376 10.116h-4.92l-2.86-8.752-.247-.757-1.43-4.378h2.124c1.237 0 1.55-.746 1.632-2.064-.01.003-.002-.268.007-.612a40.7 40.7 0 00.02-1V8.15c0-2.266 0-3.606-1.66-3.606h-3.017v15.204l-.05 4.378v9.51h-4.677V.164h7.696c4.426 0 6.338.774 6.338 7.059V17.26c0 .173-.005.332-.01.49l-.005.185-.003-.002zM33.34.166v4.339h-5.584v29.131h-4.804V4.505h-5.584V.166H33.34zm6.42 0h5.5l6.468 33.47h-4.665l-.033-.194-.58-3.546h-4.993l-1.242-3.998h5.581L42.542 5.993 38.02 33.636h-4.679l6.42-33.47zm48.24 0H72.027v4.339h5.585v29.131h4.804V4.505H88V.166zM.104 28.85v4.714h4.604V28.85H.104zM88 40H0v-3.636h88V40z" fill="#fff"/></svg>