<svg width="24" height="20" fill="none" xmlns="http://www.w3.org/2000/svg"><path fill-rule="evenodd" clip-rule="evenodd" d="M19.913 19.503L23.986.752c.105-.484-.392-.887-.873-.71L.418 8.424A.615.615 0 00.424 9.59l5.53 1.975 2.14 6.59c.138.42.677.577 1.034.297l3.083-2.405a.952.952 0 011.12-.03l5.56 3.863c.384.267.926.066 1.022-.377zM7.68 10.441l10.753-6.394c.193-.114.392.138.226.287l-8.874 7.964c-.312.28-.513.655-.57 1.062l-.302 2.163c-.04.289-.46.317-.543.038l-1.163-3.944a1.03 1.03 0 01.473-1.176z" fill="#FFC125"/></svg>