<svg width="28" height="16" fill="none" xmlns="http://www.w3.org/2000/svg"><path fill-rule="evenodd" clip-rule="evenodd" d="M24.097 10.173c.928.915 1.91 1.776 2.742 2.786.37.446.717.908.982 1.428.378.74.037 1.553-.62 1.597l-4.078-.001c-1.053.088-1.891-.341-2.598-1.068-.564-.58-1.087-1.199-1.63-1.798a3.828 3.828 0 00-.735-.66c-.556-.365-1.039-.253-1.358.334-.324.596-.398 1.258-.43 1.922-.044.97-.334 1.225-1.298 1.27-2.062.098-4.018-.218-5.836-1.268-1.604-.925-2.846-2.232-3.927-3.711C3.204 8.12 1.59 4.954.14 1.699-.185.965.054.573.855.558A112.38 112.38 0 014.848.556c.542.01.9.322 1.108.838.72 1.787 1.601 3.487 2.706 5.064.295.42.595.839 1.023 1.135.473.328.833.22 1.056-.313a3.5 3.5 0 00.235-1.063c.105-1.243.118-2.485-.065-3.722-.114-.775-.546-1.275-1.31-1.421-.39-.075-.332-.22-.143-.445.329-.388.636-.628 1.252-.628L15.317 0c.727.144.89.473.988 1.212l.004 5.17c-.008.286.142 1.133.65 1.32.408.136.677-.194.92-.454 1.105-1.184 1.893-2.582 2.598-4.028.31-.638.58-1.298.84-1.96.194-.488.495-.729 1.042-.72l4.437.005c.13 0 .263 0 .393.023.747.13.952.454.72 1.191-.363 1.157-1.07 2.121-1.762 3.088-.741 1.035-1.532 2.033-2.266 3.072-.674.95-.621 1.429.216 2.254z" fill="#FFC125"/></svg>